<svg xmlns="http://www.w3.org/2000/svg" xmlns:xlink="http://www.w3.org/1999/xlink" width="100" zoomAndPan="magnify" viewBox="0 0 60 30.000001" height="40" preserveAspectRatio="xMidYMid meet" version="1.0"><defs><g/></defs><g fill="#022759" fill-opacity="1"><g transform="translate(2.496862, 19.048968)"><g><path d="M 5.90625 0 L 1.0625 0 L 1.0625 -8.40625 L 5.90625 -8.40625 L 5.90625 -6.953125 L 2.84375 -6.953125 L 2.84375 -5.109375 L 5.6875 -5.109375 L 5.6875 -3.640625 L 2.84375 -3.640625 L 2.84375 -1.46875 L 5.90625 -1.46875 Z M 5.90625 0 "/></g></g></g><g fill="#022759" fill-opacity="1"><g transform="translate(9.093599, 19.048968)"><g><path d="M 6.203125 0 L 5.59375 -2 L 2.53125 -2 L 1.921875 0 L 0 0 L 2.96875 -8.4375 L 5.15625 -8.4375 L 8.125 0 Z M 5.171875 -3.5 C 4.609375 -5.3125 4.289062 -6.335938 4.21875 -6.578125 C 4.144531 -6.816406 4.09375 -7.003906 4.0625 -7.140625 C 3.9375 -6.648438 3.578125 -5.4375 2.984375 -3.5 Z M 5.171875 -3.5 "/></g></g></g><g fill="#022759" fill-opacity="1"><g transform="translate(17.220181, 19.048968)"><g><path d="M 2.671875 0 L 0.921875 0 L 0.921875 -8.953125 L 2.671875 -8.953125 Z M 2.671875 0 "/></g></g></g><g fill="#022759" fill-opacity="1"><g transform="translate(20.814743, 19.048968)"><g><path d="M 6.671875 0 L 4.921875 0 L 4.921875 -3.75 C 4.921875 -4.21875 4.84375 -4.566406 4.6875 -4.796875 C 4.53125 -5.035156 4.285156 -5.15625 3.953125 -5.15625 C 3.503906 -5.15625 3.175781 -4.988281 2.96875 -4.65625 C 2.769531 -4.320312 2.671875 -3.78125 2.671875 -3.03125 L 2.671875 0 L 0.921875 0 L 0.921875 -6.4375 L 2.265625 -6.4375 L 2.5 -5.609375 L 2.59375 -5.609375 C 2.769531 -5.898438 3.019531 -6.128906 3.34375 -6.296875 C 3.664062 -6.460938 4.039062 -6.546875 4.46875 -6.546875 C 5.425781 -6.546875 6.078125 -6.234375 6.421875 -5.609375 L 6.578125 -5.609375 C 6.742188 -5.910156 6.992188 -6.140625 7.328125 -6.296875 C 7.671875 -6.460938 8.050781 -6.546875 8.46875 -6.546875 C 9.195312 -6.546875 9.75 -6.359375 10.125 -5.984375 C 10.5 -5.617188 10.6875 -5.019531 10.6875 -4.1875 L 10.6875 0 L 8.921875 0 L 8.921875 -3.75 C 8.921875 -4.21875 8.84375 -4.566406 8.6875 -4.796875 C 8.539062 -5.035156 8.300781 -5.15625 7.96875 -5.15625 C 7.53125 -5.15625 7.203125 -5 6.984375 -4.6875 C 6.773438 -4.382812 6.671875 -3.898438 6.671875 -3.234375 Z M 6.671875 0 "/></g></g></g><g fill="#022759" fill-opacity="1"><g transform="translate(32.3806, 19.048968)"><g><path d="M 3.578125 -5.296875 C 3.210938 -5.296875 2.921875 -5.175781 2.703125 -4.9375 C 2.492188 -4.707031 2.375 -4.378906 2.34375 -3.953125 L 4.8125 -3.953125 C 4.800781 -4.378906 4.6875 -4.707031 4.46875 -4.9375 C 4.25 -5.175781 3.953125 -5.296875 3.578125 -5.296875 Z M 3.828125 0.109375 C 2.796875 0.109375 1.988281 -0.171875 1.40625 -0.734375 C 0.820312 -1.304688 0.53125 -2.117188 0.53125 -3.171875 C 0.53125 -4.242188 0.796875 -5.070312 1.328125 -5.65625 C 1.867188 -6.25 2.617188 -6.546875 3.578125 -6.546875 C 4.484375 -6.546875 5.1875 -6.285156 5.6875 -5.765625 C 6.195312 -5.253906 6.453125 -4.539062 6.453125 -3.625 L 6.453125 -2.78125 L 2.3125 -2.78125 C 2.320312 -2.28125 2.460938 -1.890625 2.734375 -1.609375 C 3.015625 -1.328125 3.40625 -1.1875 3.90625 -1.1875 C 4.300781 -1.1875 4.671875 -1.226562 5.015625 -1.3125 C 5.359375 -1.394531 5.71875 -1.523438 6.09375 -1.703125 L 6.09375 -0.34375 C 5.78125 -0.1875 5.445312 -0.0703125 5.09375 0 C 4.75 0.0703125 4.328125 0.109375 3.828125 0.109375 Z M 3.828125 0.109375 "/></g></g></g><g fill="#022759" fill-opacity="1"><g transform="translate(39.339667, 19.048968)"><g><path d="M 0.84375 -8.09375 C 0.84375 -8.664062 1.160156 -8.953125 1.796875 -8.953125 C 2.429688 -8.953125 2.75 -8.664062 2.75 -8.09375 C 2.75 -7.820312 2.671875 -7.609375 2.515625 -7.453125 C 2.359375 -7.304688 2.117188 -7.234375 1.796875 -7.234375 C 1.160156 -7.234375 0.84375 -7.519531 0.84375 -8.09375 Z M 2.671875 0 L 0.921875 0 L 0.921875 -6.4375 L 2.671875 -6.4375 Z M 2.671875 0 "/></g></g></g><g fill="#022759" fill-opacity="1"><g transform="translate(42.934228, 19.048968)"><g><path d="M 2.953125 0.109375 C 2.203125 0.109375 1.609375 -0.179688 1.171875 -0.765625 C 0.742188 -1.347656 0.53125 -2.160156 0.53125 -3.203125 C 0.53125 -4.253906 0.75 -5.070312 1.1875 -5.65625 C 1.625 -6.25 2.226562 -6.546875 3 -6.546875 C 3.8125 -6.546875 4.429688 -6.234375 4.859375 -5.609375 L 4.90625 -5.609375 C 4.820312 -6.085938 4.78125 -6.515625 4.78125 -6.890625 L 4.78125 -8.953125 L 6.546875 -8.953125 L 6.546875 0 L 5.1875 0 L 4.859375 -0.828125 L 4.78125 -0.828125 C 4.382812 -0.203125 3.773438 0.109375 2.953125 0.109375 Z M 3.578125 -1.28125 C 4.023438 -1.28125 4.351562 -1.410156 4.5625 -1.671875 C 4.769531 -1.929688 4.882812 -2.375 4.90625 -3 L 4.90625 -3.1875 C 4.90625 -3.882812 4.796875 -4.378906 4.578125 -4.671875 C 4.367188 -4.972656 4.023438 -5.125 3.546875 -5.125 C 3.148438 -5.125 2.84375 -4.957031 2.625 -4.625 C 2.414062 -4.289062 2.3125 -3.8125 2.3125 -3.1875 C 2.3125 -2.550781 2.421875 -2.070312 2.640625 -1.75 C 2.859375 -1.4375 3.171875 -1.28125 3.578125 -1.28125 Z M 3.578125 -1.28125 "/></g></g></g><g fill="#022759" fill-opacity="1"><g transform="translate(50.387909, 19.048968)"><g><path d="M 5 0 L 4.671875 -0.875 L 4.625 -0.875 C 4.320312 -0.5 4.015625 -0.238281 3.703125 -0.09375 C 3.390625 0.0390625 2.984375 0.109375 2.484375 0.109375 C 1.867188 0.109375 1.382812 -0.0625 1.03125 -0.40625 C 0.675781 -0.757812 0.5 -1.265625 0.5 -1.921875 C 0.5 -2.609375 0.734375 -3.113281 1.203125 -3.4375 C 1.679688 -3.757812 2.40625 -3.9375 3.375 -3.96875 L 4.484375 -4 L 4.484375 -4.28125 C 4.484375 -4.9375 4.148438 -5.265625 3.484375 -5.265625 C 2.972656 -5.265625 2.367188 -5.109375 1.671875 -4.796875 L 1.09375 -5.984375 C 1.832031 -6.367188 2.65625 -6.5625 3.5625 -6.5625 C 4.414062 -6.5625 5.070312 -6.375 5.53125 -6 C 6 -5.625 6.234375 -5.050781 6.234375 -4.28125 L 6.234375 0 Z M 4.484375 -2.984375 L 3.8125 -2.953125 C 3.300781 -2.941406 2.921875 -2.847656 2.671875 -2.671875 C 2.421875 -2.503906 2.296875 -2.25 2.296875 -1.90625 C 2.296875 -1.414062 2.578125 -1.171875 3.140625 -1.171875 C 3.546875 -1.171875 3.867188 -1.285156 4.109375 -1.515625 C 4.359375 -1.753906 4.484375 -2.066406 4.484375 -2.453125 Z M 4.484375 -2.984375 "/></g></g></g></svg>
